#!OML:ASF H:\MichaelJackson\Top Level 1\Subject 1\Session 1\male.ASF
:FULLY-SPECIFIED
:DEGREES
584
root 6.13502 16.6463 30.2017 2.16463 14.1609 2.43336
lowerback 0.399152 -1.45904 -2.30847
upperback 0.60143 -1.93738 -2.29769
thorax 0.389531 -0.971064 -1.0593
lowerneck -5.6288 -5.80317 0.213537
upperneck 3.85981 -8.00923 4.51177
head 2.38369 -3.85401 1.09015
rclavicle 6.90777e-015 -1.59028e-015
rhumerus -57.7855 24.6597 -90.174
rradius 114.247
rwrist -3.84364
rhand 1.25253 -10.2484
rfingers 7.12502
rthumb 26.7895 -398.371
lclavicle 6.90777e-015 -1.59028e-015
lhumerus -51.1215 -30.6721 111.205
lradius 62.0678
lwrist 23.9294
lhand 22.2473 24.6598
lfingers 7.12502
lthumb 46.6226 47.4905
rfemur -28.2571 -11.807 -7.66655
rtibia 62.1175
rfoot 29.4094 -4.64356
rtoes 27.6176
lfemur -11.6824 5.98752 -4.12569
ltibia 27.3285
lfoot 1.85705 -35.6725
ltoes 14.152
585
root 6.04912 16.6231 30.2208 2.59953 13.9112 2.56873
lowerback -0.0973212 -1.48173 -2.27554
upperback 0.476351 -1.95114 -2.48246
thorax 0.532125 -0.97778 -1.27923
lowerneck -5.62401 -5.6699 0.225101
upperneck 3.7801 -7.8305 4.5527
head 2.35368 -3.76551 1.10983
rclavicle 1.22253e-014 3.97569e-015
rhumerus -58.0138 26.3487 -88.7467
rradius 115.432
rwrist -4.35638
rhand 3.17031 -9.95439
rfingers 7.12502
rthumb 28.6233 -397.782
lclavicle 1.22253e-014 3.97569e-015
lhumerus -51.0674 -30.5846 110.789
lradius 61.7359
lwrist 23.8762
lhand 23.3949 24.5475
lfingers 7.12502
lthumb 47.6835 46.9067
rfemur -26.6059 -9.1753 -7.83141
rtibia 59.087
rfoot 27.5048 -3.32256
rtoes 20.6377
lfemur -11.5856 4.97243 -3.41082
ltibia 26.02
lfoot 3.48379 -37.3699
ltoes 13.5693
586
root 5.96168 16.591 30.236 2.94607 13.6839 2.71751
lowerback -0.472358 -1.52567 -2.21444
upperback 0.383981 -1.99686 -2.67615
thorax 0.638498 -1.00018 -1.52183
lowerneck -5.56723 -5.52264 0.251105
upperneck 3.6122 -7.62732 4.5624
head 2.28205 -3.66811 1.1205
rclavicle 1.59028e-014 -7.95139e-016
rhumerus -58.1585 28.1393 -86.9908
rradius 116.672
rwrist -5.00497
rhand 4.42533 -10.1259
rfingers 7.12502
rthumb 29.8217 -397.745
lclavicle 1.59028e-014 -7.95139e-016
lhumerus -51.0251 -30.5407 110.356
lradius 61.5411
lwrist 23.946
lhand 24.5007 24.5971
lfingers 7.12502
lthumb 48.7023 46.4755
rfemur -24.9802 -6.63681 -7.99772
rtibia 56.4617
rfoot 24.9251 -2.12644
rtoes 10.3168
lfemur -11.4746 3.89216 -2.73796
ltibia 24.8667
lfoot 4.6952 -38.9398
ltoes 13.2021
587
root 5.87368 16.5503 30.2479 3.19869 13.477 2.8765
lowerback -0.730333 -1.58678 -2.12521
upperback 0.322752 -2.06942 -2.87323
thorax 0.709227 -1.03577 -1.78167
lowerneck -5.45695 -5.36383 0.290183
upperneck 3.37669 -7.4041 4.54396
head 2.17619 -3.56345 1.1227
rclavicle -6.55989e-015 -1.82882e-014
rhumerus -58.1726 30.0204 -84.8384
rradius 117.928
rwrist -5.88817
rhand 5.13605 -10.592
rfingers 7.12502
rthumb 30.4997 -398.088
lclavicle -6.55989e-015 -1.82882e-014
lhumerus -50.9907 -30.555 109.939
lradius 61.4535
lwrist 24.2364
lhand 25.4387 24.9857
lfingers 7.12502
lthumb 49.5636 46.4346
rfemur -23.382 -4.32753 -8.13684
rtibia 54.2578
rfoot 21.8042 -1.40735
rtoes -2.76354
lfemur -11.3422 2.76381 -2.12418
ltibia 23.8986
lfoot 5.44983 -40.352
ltoes 13.2648
588
root 5.78614 16.5022 30.257 3.36962 13.2867 3.05787
lowerback -0.887897 -1.66199 -2.02303
upperback 0.284697 -2.16433 -3.07494
thorax 0.745562 -1.08241 -2.05173
lowerneck -5.30688 -5.19573 0.339241
upperneck 3.11372 -7.16626 4.50451
head 2.05298 -3.45295 1.11791
rclavicle 4.24157e-014 2.8625e-014
rhumerus -57.9857 31.9685 -82.2249
rradius 119.133
rwrist -7.03244
rhand 5.46648 -11.2029
rfingers 7.12502
rthumb 30.8148 -398.64
lclavicle 4.24157e-014 2.8625e-014
lhumerus -50.9734 -30.6503 109.576
lradius 61.4328
lwrist 24.7924
lhand 26.115 25.8502
lfingers 7.12502
lthumb 50.1829 46.9763
rfemur -21.8244 -2.38358 -8.24372
rtibia 52.4324
rfoot 18.3812 -1.37505
rtoes -15.8409
lfemur -11.1845 1.64143 -1.6051
ltibia 23.1307
lfoot 5.69806 -41.547
ltoes 13.7716
